# xmcd
#
# Track frame offsets: 
#        150
#        11453
#        25147
#        44112
#        57156
#        66697
#        85111
#        98962
#        115918
#        128987
#        141705
#        154135
#        173938
#
# Disc length: 2476 seconds
#
# Revision: 0
# Processed by: cddbd v1.5.2PL0 Copyright (c) Steve Scherf et al.
# Submitted via: ExactAudioCopy v0.99pb4
#
DISCID=bf09aa0d
DTITLE=Various Artist - Песни горячего сердца...
DYEAR=2007
DGENRE=Retro-Folk
TTITLE0=C чего начинается Родина
TTITLE1=Трудная работа
TTITLE2=Щит и меч России
TTITLE3=Песня о советских чекистах
TTITLE4=Песня дзержинцев
TTITLE5=Берёзовый сок
TTITLE6=Где он, этот день?
TTITLE7=Песня чекистов
TTITLE8=Мгновения
TTITLE9=Песня о далёкой Родине
TTITLE10=Песенка про шпиона
TTITLE11=Воспоминание
TTITLE12=Прощание славянки
EXTD=
EXTT0=
EXTT1=
EXTT2=
EXTT3=
EXTT4=
EXTT5=
EXTT6=
EXTT7=
EXTT8=
EXTT9=
EXTT10=
EXTT11=
EXTT12=
PLAYORDER=
